<?xml version="1.0" encoding="UTF-8"?>
<!DOCTYPE svg PUBLIC "-//W3C//DTD SVG 1.1//EN" "http://www.w3.org/Graphics/SVG/1.1/DTD/svg11.dtd">
<svg xmlns="http://www.w3.org/2000/svg" version="1.1" width="600px" height="118px" style="shape-rendering:geometricPrecision; text-rendering:geometricPrecision; image-rendering:optimizeQuality; fill-rule:evenodd; clip-rule:evenodd" xmlns:xlink="http://www.w3.org/1999/xlink">
<g><path style="opacity:0.998" fill="#f7c02d" d="M 405.5,-0.5 C 452.833,-0.5 500.167,-0.5 547.5,-0.5C 559.267,2.04993 569.267,7.7166 577.5,16.5C 576.414,16.62 575.747,17.2867 575.5,18.5C 576.651,20.3254 577.318,22.3254 577.5,24.5C 581.005,23.8909 583.672,25.0576 585.5,28C 582.833,28.6667 582.833,29.3333 585.5,30C 581.26,31.2393 576.926,32.0727 572.5,32.5C 572.5,33.5 572.5,34.5 572.5,35.5C 571.5,35.5 570.5,35.5 569.5,35.5C 562.662,25.8572 553.329,20.0238 541.5,18C 499.833,17.6667 458.167,17.3333 416.5,17C 408.176,14.1995 404.509,8.36616 405.5,-0.5 Z"/></g>
<g><path style="opacity:0.6" fill="#153362" d="M 170.5,20.5 C 174.634,19.5151 178.968,19.1818 183.5,19.5C 183.5,23.5 183.5,27.5 183.5,31.5C 182.518,28.0381 182.185,24.3714 182.5,20.5C 178.5,20.5 174.5,20.5 170.5,20.5 Z"/></g>
<g><path style="opacity:0.991" fill="#0d3573" d="M 170.5,20.5 C 174.5,20.5 178.5,20.5 182.5,20.5C 182.185,24.3714 182.518,28.0381 183.5,31.5C 186.962,32.4816 190.629,32.815 194.5,32.5C 194.5,35.1667 194.5,37.8333 194.5,40.5C 190.629,40.185 186.962,40.5184 183.5,41.5C 183.069,52.5775 183.569,63.5775 185,74.5C 186.438,75.7185 188.105,76.3852 190,76.5C 192.137,75.9233 194.304,75.59 196.5,75.5C 196.5,79.1667 196.5,82.8333 196.5,86.5C 189.647,88.2065 182.98,87.7065 176.5,85C 173.894,83.0616 172.061,80.5616 171,77.5C 170.831,65.3263 170.331,53.3263 169.5,41.5C 168.081,40.5489 166.415,40.2155 164.5,40.5C 164.5,37.8333 164.5,35.1667 164.5,32.5C 166.415,32.7845 168.081,32.4511 169.5,31.5C 170.482,28.0381 170.815,24.3714 170.5,20.5 Z"/></g>
<g><path style="opacity:0.599" fill="#e9c14e" d="M 486.5,26.5 C 494.656,25.3434 502.99,25.1768 511.5,26C 510.956,26.7172 510.289,27.2172 509.5,27.5C 502.018,26.508 494.352,26.1746 486.5,26.5 Z"/></g>
<g><path style="opacity:1" fill="#f6c02e" d="M 486.5,26.5 C 494.352,26.1746 502.018,26.508 509.5,27.5C 505.81,31.7031 502.477,36.2031 499.5,41C 493.175,41.4995 486.842,41.6662 480.5,41.5C 481.328,36.0124 483.328,31.0124 486.5,26.5 Z"/></g>
<g><path style="opacity:0.975" fill="#0c3573" d="M 216.5,54.5 C 221.833,54.5 227.167,54.5 232.5,54.5C 232.802,51.9407 232.468,49.6074 231.5,47.5C 226.997,39.4433 221.163,38.4433 214,44.5C 212.991,46.0249 212.491,47.6916 212.5,49.5C 208.167,49.5 203.833,49.5 199.5,49.5C 199.704,41.1192 203.704,35.2859 211.5,32C 221.329,29.2517 230.663,30.2517 239.5,35C 243.147,39.1304 244.98,43.9637 245,49.5C 245.5,61.8288 245.667,74.1622 245.5,86.5C 240.833,86.5 236.167,86.5 231.5,86.5C 231.657,85.1266 231.49,83.7932 231,82.5C 221.856,88.5611 212.356,89.0611 202.5,84C 198.874,80.4597 197.207,76.1264 197.5,71C 197.322,64.6877 199.989,60.021 205.5,57C 209.014,55.4383 212.681,54.605 216.5,54.5 Z M 218.5,62.5 C 222.833,62.5 227.167,62.5 231.5,62.5C 231.907,74.252 226.24,79.0853 214.5,77C 208.617,70.2514 209.95,65.4181 218.5,62.5 Z"/></g>
<g><path style="opacity:0.984" fill="#f7c02c" d="M 577.5,16.5 C 586.352,24.528 591.852,34.528 594,46.5C 598.032,83.1316 582.532,106.798 547.5,117.5C 540.167,117.5 532.833,117.5 525.5,117.5C 506.984,113.49 493.151,103.157 484,86.5C 482.241,82.9913 481.074,79.3246 480.5,75.5C 486.842,75.3338 493.175,75.5005 499.5,76C 511.831,96.6673 529.497,103.334 552.5,96C 570.745,86.3455 578.579,71.1788 576,50.5C 574.908,44.9869 572.741,39.9869 569.5,35.5C 570.5,35.5 571.5,35.5 572.5,35.5C 572.5,34.5 572.5,33.5 572.5,32.5C 576.926,32.0727 581.26,31.2393 585.5,30C 582.833,29.3333 582.833,28.6667 585.5,28C 583.672,25.0576 581.005,23.8909 577.5,24.5C 577.318,22.3254 576.651,20.3254 575.5,18.5C 575.747,17.2867 576.414,16.62 577.5,16.5 Z"/></g>
<g><path style="opacity:0.89" fill="#173561" d="M 169.5,31.5 C 168.081,32.4511 166.415,32.7845 164.5,32.5C 164.5,35.1667 164.5,37.8333 164.5,40.5C 166.415,40.2155 168.081,40.5489 169.5,41.5C 167.5,41.5 165.5,41.5 163.5,41.5C 163.5,38.1667 163.5,34.8333 163.5,31.5C 165.5,31.5 167.5,31.5 169.5,31.5 Z"/></g>
<g><path style="opacity:0.592" fill="#163462" d="M 183.5,31.5 C 187.5,31.5 191.5,31.5 195.5,31.5C 195.5,34.8333 195.5,38.1667 195.5,41.5C 191.5,41.5 187.5,41.5 183.5,41.5C 186.962,40.5184 190.629,40.185 194.5,40.5C 194.5,37.8333 194.5,35.1667 194.5,32.5C 190.629,32.815 186.962,32.4816 183.5,31.5 Z"/></g>
<g><path style="opacity:0.753" fill="#143564" d="M 252.5,32.5 C 256.634,31.5151 260.968,31.1818 265.5,31.5C 265.5,43.5 265.5,55.5 265.5,67.5C 264.505,56.012 264.172,44.3453 264.5,32.5C 260.5,32.5 256.5,32.5 252.5,32.5 Z"/></g>
<g><path style="opacity:0.355" fill="#163562" d="M 300.5,86.5 C 300.5,68.5 300.5,50.5 300.5,32.5C 296.5,32.5 292.5,32.5 288.5,32.5C 288.829,45.0113 288.495,57.3446 287.5,69.5C 287.5,56.8333 287.5,44.1667 287.5,31.5C 292.167,31.5 296.833,31.5 301.5,31.5C 301.83,50.0076 301.497,68.3409 300.5,86.5 Z"/></g>
<g><path style="opacity:0.44" fill="#143561" d="M 322.5,31.5 C 318.702,32.4834 314.702,32.8168 310.5,32.5C 310.5,50.5 310.5,68.5 310.5,86.5C 309.503,68.3409 309.17,50.0076 309.5,31.5C 313.833,31.5 318.167,31.5 322.5,31.5 Z"/></g>
<g><path style="opacity:0.989" fill="#0b3472" d="M 310.5,86.5 C 310.5,68.5 310.5,50.5 310.5,32.5C 314.702,32.8168 318.702,32.4834 322.5,31.5C 323.314,33.631 323.814,35.9644 324,38.5C 327.928,32.787 333.428,30.1203 340.5,30.5C 340.5,34.8333 340.5,39.1667 340.5,43.5C 333.211,42.6435 327.711,45.3102 324,51.5C 323.5,63.1619 323.333,74.8286 323.5,86.5C 319.167,86.5 314.833,86.5 310.5,86.5 Z"/></g>
<g><path style="opacity:0.947" fill="#0c3574" d="M 93.5,70.5 C 97.1667,70.5 100.833,70.5 104.5,70.5C 103.904,72.398 103.904,74.0646 104.5,75.5C 101.445,81.7047 96.4454,85.5381 89.5,87C 63.4952,89.9946 51.6619,78.4946 54,52.5C 58.985,35.0827 70.485,27.916 88.5,31C 98.3464,33.8367 104.18,40.3367 106,50.5C 106.499,54.4862 106.666,58.4862 106.5,62.5C 93.5,62.5 80.5,62.5 67.5,62.5C 69.2575,75.0496 76.2575,79.5496 88.5,76C 90.7437,74.5945 92.4103,72.7611 93.5,70.5 Z M 76.5,40.5 C 85.8281,39.0033 91.4948,42.8367 93.5,52C 84.8142,52.8319 76.1475,52.6652 67.5,51.5C 68.6667,49.1667 69.8333,46.8333 71,44.5C 73.0153,43.3034 74.8487,41.9701 76.5,40.5 Z"/></g>
<g><path style="opacity:0.958" fill="#0c3674" d="M 112.5,86.5 C 112.5,68.5 112.5,50.5 112.5,32.5C 116.5,32.5 120.5,32.5 124.5,32.5C 124.34,34.1992 124.506,35.8659 125,37.5C 131.496,30.8645 139.329,28.6978 148.5,31C 154.908,33.7467 158.742,38.58 160,45.5C 160.5,59.1626 160.667,72.8293 160.5,86.5C 156.167,86.5 151.833,86.5 147.5,86.5C 147.877,73.4539 147.377,60.4539 146,47.5C 141.731,41.1115 136.231,39.9448 129.5,44C 127.106,45.9522 125.606,48.4522 125,51.5C 124.5,63.1619 124.333,74.8286 124.5,86.5C 120.5,86.5 116.5,86.5 112.5,86.5 Z"/></g>
<g><path style="opacity:0.971" fill="#0c3674" d="M 252.5,32.5 C 256.5,32.5 260.5,32.5 264.5,32.5C 264.172,44.3453 264.505,56.012 265.5,67.5C 268.664,76.8425 274.664,79.0092 283.5,74C 285.07,72.6032 286.404,71.1032 287.5,69.5C 288.495,57.3446 288.829,45.0113 288.5,32.5C 292.5,32.5 296.5,32.5 300.5,32.5C 300.5,50.5 300.5,68.5 300.5,86.5C 296.167,86.5 291.833,86.5 287.5,86.5C 287.662,84.4727 287.495,82.4727 287,80.5C 283.197,85.6105 278.031,87.9438 271.5,87.5C 261.3,87.9986 255.134,83.3319 253,73.5C 252.5,59.8374 252.333,46.1707 252.5,32.5 Z"/></g>
<g><path style="opacity:0.974" fill="#0c3673" d="M 361.5,30.5 C 386.291,29.1237 397.791,40.7904 396,65.5C 391.008,82.7869 379.508,89.9536 361.5,87C 344.525,81.235 337.692,69.4017 341,51.5C 344.016,40.6517 350.849,33.6517 361.5,30.5 Z M 363.5,41.5 C 373.043,39.6824 379.21,43.3491 382,52.5C 383.44,59.7011 382.274,66.3677 378.5,72.5C 372.574,77.2247 366.241,77.7247 359.5,74C 357.57,71.7417 356.07,69.2417 355,66.5C 354.139,60.4149 354.473,54.4149 356,48.5C 357.742,45.2543 360.242,42.921 363.5,41.5 Z"/></g>
<g><path style="opacity:0.585" fill="#eac052" d="M 525.5,50.5 C 496.5,50.5 467.5,50.5 438.5,50.5C 438.5,51.5 438.5,52.5 438.5,53.5C 437.566,52.4324 437.232,51.099 437.5,49.5C 467.005,49.1686 496.338,49.5019 525.5,50.5 Z"/></g>
<g><path style="opacity:1" fill="#f7c02b" d="M 525.5,50.5 C 532.376,52.0479 536.043,56.3812 536.5,63.5C 536.5,64.5 536.5,65.5 536.5,66.5C 506.833,66.5 477.167,66.5 447.5,66.5C 441.802,64.1235 438.802,59.7902 438.5,53.5C 438.5,52.5 438.5,51.5 438.5,50.5C 467.5,50.5 496.5,50.5 525.5,50.5 Z"/></g>
<g><path style="opacity:0.943" fill="#0d3573" d="M -0.5,63.5 C -0.5,60.5 -0.5,57.5 -0.5,54.5C 4.10224,35.7803 16.1022,27.947 35.5,31C 46.0933,33.759 51.7599,40.5924 52.5,51.5C 48.1161,51.8256 43.7828,51.4922 39.5,50.5C 36.8921,42.6945 31.5588,39.8612 23.5,42C 16.4501,45.5886 13.1168,51.422 13.5,59.5C 13.3126,69.3091 17.9793,75.3091 27.5,77.5C 34.4829,76.8567 38.8162,73.1901 40.5,66.5C 44.4454,65.5091 48.4454,65.1758 52.5,65.5C 51.0426,80.4249 42.7093,87.7583 27.5,87.5C 11.6189,86.9419 2.28555,78.9419 -0.5,63.5 Z"/></g>
<g><path style="opacity:0.792" fill="#153463" d="M 124.5,32.5 C 120.5,32.5 116.5,32.5 112.5,32.5C 112.5,50.5 112.5,68.5 112.5,86.5C 111.503,68.3409 111.17,50.0076 111.5,31.5C 116.032,31.1818 120.366,31.5151 124.5,32.5 Z"/></g>
<g><path style="opacity:0.504" fill="#143562" d="M 231.5,47.5 C 232.468,49.6074 232.802,51.9407 232.5,54.5C 227.167,54.5 221.833,54.5 216.5,54.5C 221.305,53.5128 226.305,53.1795 231.5,53.5C 231.5,51.5 231.5,49.5 231.5,47.5 Z"/></g>
<g><path style="opacity:0.997" fill="#eac151" d="M 536.5,63.5 C 537.434,64.5676 537.768,65.901 537.5,67.5C 507.329,67.8314 477.329,67.4981 447.5,66.5C 477.167,66.5 506.833,66.5 536.5,66.5C 536.5,65.5 536.5,64.5 536.5,63.5 Z"/></g>
<g><path style="opacity:0.874" fill="#143562" d="M 93.5,70.5 C 97.6829,69.1889 102.016,69.1889 106.5,70.5C 105.826,72.1955 105.159,73.8621 104.5,75.5C 103.904,74.0646 103.904,72.398 104.5,70.5C 100.833,70.5 97.1667,70.5 93.5,70.5 Z"/></g>
</svg>
