<?xml version="1.0" encoding="UTF-8"?>
<!DOCTYPE svg PUBLIC "-//W3C//DTD SVG 1.1//EN" "http://www.w3.org/Graphics/SVG/1.1/DTD/svg11.dtd">
<svg xmlns="http://www.w3.org/2000/svg" version="1.1" width="192px" height="52px" style="shape-rendering:geometricPrecision; text-rendering:geometricPrecision; image-rendering:optimizeQuality; fill-rule:evenodd; clip-rule:evenodd" xmlns:xlink="http://www.w3.org/1999/xlink">
<g><path style="opacity:0.955" fill="#263252" d="M 27.5,35.5 C 26.7354,35.0766 25.9021,34.7432 25,34.5C 22.7366,36.4991 20.2366,37.8324 17.5,38.5C 14.3308,38.1614 12.1641,36.4948 11,33.5C 10.5003,25.1733 10.3336,16.84 10.5,8.5C 12.1667,8.5 13.8333,8.5 15.5,8.5C 15.3336,16.1739 15.5003,23.8406 16,31.5C 20.0133,32.7202 23.8466,34.0536 27.5,35.5 Z"/></g>
<g><path style="opacity:0.991" fill="#273352" d="M 101.5,30.5 C 100.026,31.4363 99.0256,32.7697 98.5,34.5C 94.6628,26.351 90.9961,18.0176 87.5,9.5C 89.396,8.53443 91.396,8.2011 93.5,8.5C 95.9662,15.8981 98.6329,23.2314 101.5,30.5 Z"/></g>
<g><path style="opacity:0.92" fill="#2b3055" d="M 61.5,16.5 C 63.5,17.1667 64.8333,18.5 65.5,20.5C 64.7377,22.2624 63.4044,23.2624 61.5,23.5C 59.1521,20.3818 56.1521,19.7151 52.5,21.5C 53.3479,19.9069 54.6813,18.7403 56.5,18C 56.1667,17.6667 55.8333,17.3333 55.5,17C 57.4727,16.5045 59.4727,16.3379 61.5,16.5 Z"/></g>
<g><path style="opacity:0.964" fill="#273353" d="M 171.5,28.5 C 169.857,28.5198 168.524,27.8532 167.5,26.5C 166.702,26.9569 166.369,27.6236 166.5,28.5C 165.768,27.1917 164.934,25.8584 164,24.5C 163.153,26.8543 162.32,29.1877 161.5,31.5C 159.446,31.6347 157.779,30.968 156.5,29.5C 158.355,25.2737 160.021,20.9404 161.5,16.5C 163.396,15.5344 165.396,15.2011 167.5,15.5C 168.433,19.9645 169.766,24.2979 171.5,28.5 Z"/></g>
<g><path style="opacity:0.858" fill="#283153" d="M 98.5,34.5 C 99.0256,32.7697 100.026,31.4363 101.5,30.5C 105.265,23.5528 108.265,16.2194 110.5,8.5C 114.179,8.72442 117.846,9.05775 121.5,9.5C 121.859,11.7659 121.192,13.5993 119.5,15C 121.447,22.5581 122.114,30.3915 121.5,38.5C 119.833,38.5 118.167,38.5 116.5,38.5C 115.886,30.3915 116.553,22.5581 118.5,15C 117.033,13.9025 116.199,12.4025 116,10.5C 112.057,19.3864 108.39,28.3864 105,37.5C 101.242,39.4735 99.0755,38.4735 98.5,34.5 Z"/></g>
<g><path style="opacity:0.972" fill="#273353" d="M 61.5,16.5 C 59.4727,16.3379 57.4727,16.5045 55.5,17C 55.8333,17.3333 56.1667,17.6667 56.5,18C 54.6813,18.7403 53.3479,19.9069 52.5,21.5C 51.5476,27.0748 51.2143,32.7414 51.5,38.5C 49.8333,38.5 48.1667,38.5 46.5,38.5C 46.0845,32.0478 46.5845,25.7145 48,19.5C 51.9374,15.5701 56.4374,14.5701 61.5,16.5 Z"/></g>
<g><path style="opacity:1" fill="#2a3452" d="M 35.5,42.5 C 35.5,39.5 35.5,36.5 35.5,33.5C 37.5901,33.5499 38.9234,32.5499 39.5,30.5C 39.2353,27.7173 38.902,25.0507 38.5,22.5C 39.5941,20.3879 40.5941,18.2213 41.5,16C 43.1341,15.5065 44.8008,15.3398 46.5,15.5C 43.6286,24.8978 39.9619,33.8978 35.5,42.5 Z"/></g>
<g><path style="opacity:0.999" fill="#273354" d="M 61.5,23.5 C 63.4044,23.2624 64.7377,22.2624 65.5,20.5C 67.1181,25.9035 67.9515,31.5702 68,37.5C 70.112,33.7216 72.612,30.2216 75.5,27C 72.4465,23.6134 69.7798,19.9467 67.5,16C 72.9705,14.7794 76.4705,16.9461 78,22.5C 79.7433,20.6789 81.2433,18.6789 82.5,16.5C 84.5,15.1667 86.5,15.1667 88.5,16.5C 86.0426,19.914 83.7093,23.414 81.5,27C 83.7093,30.586 86.0426,34.086 88.5,37.5C 86.5,38.8333 84.5,38.8333 82.5,37.5C 81.2433,35.3211 79.7433,33.3211 78,31.5C 75.0091,38.0869 69.8425,40.4202 62.5,38.5C 62.7787,33.4053 62.4454,28.4053 61.5,23.5 Z"/></g>
<g><path style="opacity:0.916" fill="#283355" d="M 131.5,30.5 C 131.44,29.9569 131.107,29.6236 130.5,29.5C 128.815,30.9527 127.149,32.286 125.5,33.5C 121.643,20.1864 126.643,14.3531 140.5,16C 143.431,17.526 145.431,19.8593 146.5,23C 146.387,24.2798 145.72,25.1131 144.5,25.5C 140.246,27.464 135.912,29.1307 131.5,30.5 Z M 132.5,20.5 C 135.073,20.1485 137.406,20.6485 139.5,22C 136.048,23.2257 132.715,24.7257 129.5,26.5C 128.826,23.8456 129.826,21.8456 132.5,20.5 Z"/></g>
<g><path style="opacity:0.848" fill="#293254" d="M 166.5,28.5 C 166.369,27.6236 166.702,26.9569 167.5,26.5C 168.524,27.8532 169.857,28.5198 171.5,28.5C 171.81,29.7383 172.31,29.7383 173,28.5C 174.205,24.3837 175.705,20.3837 177.5,16.5C 179.045,15.5481 180.712,15.2148 182.5,15.5C 180.332,23.1709 177.665,30.6709 174.5,38C 172.741,38.7975 171.074,38.6309 169.5,37.5C 168.199,34.5729 167.199,31.5729 166.5,28.5 Z"/></g>
<g><path style="opacity:0.986" fill="#2a3253" d="M 156.5,29.5 C 157.779,30.968 159.446,31.6347 161.5,31.5C 160.434,33.7014 159.767,36.0347 159.5,38.5C 157.5,38.5 155.5,38.5 153.5,38.5C 151.332,30.8291 148.665,23.3291 145.5,16C 147.473,15.5045 149.473,15.3379 151.5,15.5C 152.792,20.3816 154.459,25.0483 156.5,29.5 Z"/></g>
<g><path style="opacity:0.878" fill="#293253" d="M 38.5,22.5 C 38.902,25.0507 39.2353,27.7173 39.5,30.5C 38.9234,32.5499 37.5901,33.5499 35.5,33.5C 35.5,36.5 35.5,39.5 35.5,42.5C 35.5,43.5 35.5,44.5 35.5,45.5C 33.4727,45.6621 31.4727,45.4955 29.5,45C 30.9624,41.906 32.2957,38.7394 33.5,35.5C 30.8333,29.1667 28.1667,22.8333 25.5,16.5C 27.396,15.5344 29.396,15.2011 31.5,15.5C 32.6927,19.9106 34.1927,24.2439 36,28.5C 37.122,26.5932 37.9553,24.5932 38.5,22.5 Z"/></g>
<g><path style="opacity:0.901" fill="#273452" d="M 131.5,30.5 C 131.389,31.1174 131.056,31.6174 130.5,32C 134.593,34.3169 138.26,33.8169 141.5,30.5C 145.607,31.3754 146.273,33.2087 143.5,36C 139.445,38.3403 135.111,39.007 130.5,38C 128.34,37.0041 126.673,35.5041 125.5,33.5C 127.149,32.286 128.815,30.9527 130.5,29.5C 131.107,29.6236 131.44,29.9569 131.5,30.5 Z"/></g>
<g><path style="opacity:0.298" fill="#2b2f58" d="M 27.5,35.5 C 27.5,36.5 27.5,37.5 27.5,38.5C 24.1667,38.5 20.8333,38.5 17.5,38.5C 20.2366,37.8324 22.7366,36.4991 25,34.5C 25.9021,34.7432 26.7354,35.0766 27.5,35.5 Z"/></g>
</svg>
