<?xml version="1.0" encoding="UTF-8"?>
<svg xmlns="http://www.w3.org/2000/svg" width="266" height="52" viewBox="0 0 266 52" fill="none">
  <path d="M65.7349 35.0923C58.9694 35.0923 53.7164 31.7811 53.3567 26.8163H58.6097C59.1503 29.2271 61.9924 30.7754 65.6634 30.7754C69.0819 30.7754 71.4927 29.3364 71.4927 27.3927C71.4927 21.3824 53.6807 27.5 53.6807 15.9863C53.6807 11.5602 58.3593 8.82535 64.5484 8.82535C71.0972 8.82535 75.7043 11.9557 76.0998 16.525H70.8826C70.4513 14.5812 67.788 12.9991 64.5503 12.9991C61.0245 12.9991 58.721 14.3307 58.721 16.1294C58.721 21.7064 76.533 15.877 76.533 27.5358C76.533 31.7095 72.4666 35.0923 65.7389 35.0923H65.7349Z" fill="#192A56"></path>
  <path d="M84.7236 24.2603V29.8731H100.485V34.5517H79.6852V9.36395H100.485V14.0068H84.7236V24.2623V24.2603ZM83.2051 19.6175H99.9081V24.2603H83.2051V19.6175Z" fill="#192A56"></path>
  <path d="M219.363 24.2603V29.8731H235.124V34.5517H214.325V9.36395H235.124V14.0068H219.363V24.2623V24.2603ZM217.845 19.6175H234.548V24.2603H217.845V19.6175Z" fill="#192A56"></path>
  <path d="M117.523 30.2706C121.159 30.2706 124.001 28.5792 125.404 25.8444L129.751 28.3288C127.537 32.5284 122.991 35.0923 117.523 35.0923C109.643 35.0923 103.706 29.4795 103.706 21.9946C103.706 14.5096 109.607 8.82535 117.523 8.82535C123.007 8.82535 127.535 11.4031 129.757 15.6226L125.404 18.0732C124.037 15.3026 121.194 13.647 117.523 13.647C112.378 13.647 108.743 17.0298 108.743 21.9946C108.743 26.9594 112.414 30.2706 117.523 30.2706Z" fill="#192A56"></path>
  <path d="M140.958 14.0048H132.034V9.36197H154.849V14.0048H145.997V34.5517H140.958V14.0048Z" fill="#192A56"></path>
  <path d="M170.757 8.82336C178.637 8.82336 184.538 14.1121 184.538 21.9926C184.538 29.8731 178.637 35.0903 170.757 35.0903C162.876 35.0903 156.94 29.4776 156.94 21.9926C156.94 14.5076 162.841 8.82336 170.757 8.82336ZM170.757 30.2706C175.974 30.2706 179.5 26.8521 179.5 21.9946C179.5 17.1371 175.974 13.647 170.757 13.647C165.54 13.647 161.976 17.0298 161.976 21.9946C161.976 26.9594 165.647 30.2706 170.757 30.2706Z" fill="#192A56"></path>
  <path d="M199.57 27.2118H192.733V34.5517H187.694V9.36395H200.649C206.047 9.36395 210.509 12.9256 210.509 18.2879C210.509 21.8137 208.206 24.7652 205.075 26.2399L211.407 34.5517H205.147L199.57 27.2118ZM200.649 14.0048H192.733V22.4974H200.649C203.42 22.4974 205.471 20.6629 205.471 18.2879C205.471 15.9128 203.455 14.0068 200.649 14.0068V14.0048Z" fill="#192A56"></path>
  <path d="M251.71 7.923L265.14 34.5517H259.61L251.68 18.5184L243.782 34.5517H238.282L251.712 7.923H251.71Z" fill="#192A56"></path>
  <path d="M15.425 12.6731C15.2004 12.6473 14.7314 12.5976 14.1431 12.6175C13.2507 12.6334 12.2649 12.7208 11.3447 12.6254C12.6465 14.9488 14.8129 14.9906 15.7391 14.8892C16.0193 14.8554 16.3174 15.0005 16.4088 15.2708C16.5818 15.8015 16.9256 16.9542 16.9256 16.9542C17.0627 16.3461 17.1402 15.6326 17.1402 14.77C17.1402 13.3211 16.4386 12.8222 15.423 12.6731H15.425Z" fill="#192A56"></path>
  <path d="M40.6744 18.8424C38.9015 16.5945 37.7368 14.5633 37.1306 11.8682C35.5983 5.05703 29.8067 1.1317 24.0966 2.66208C24.3907 1.47554 25.4103 0.432092 26.416 0.0763282C23.4447 -0.384774 20.9344 1.32051 20.3382 3.48689C19.7439 1.32051 17.2317 -0.386761 14.2604 0.0763282C15.2661 0.432092 16.2856 1.47554 16.5798 2.66208C10.8697 1.1317 5.0761 5.05902 3.54373 11.8682C2.93754 14.5613 1.77087 16.5945 0 18.8424C1.48069 19.0014 3.01306 18.6059 4.18967 17.7274C0.723451 21.6309 -0.699603 27.2973 1.44094 31.9898C2.25582 29.6107 3.92533 27.6053 6.04203 26.538C2.39495 33.0312 4.25128 42.458 11.1042 45.7314C9.59967 42.6428 9.67916 38.9301 11.7462 36.2987C12.3186 43.1834 14.6996 47.86 20.3362 52C26.1755 47.5639 28.64 42.6746 28.9262 36.2987C30.9932 38.9301 31.0727 42.6428 29.5682 45.7314C36.4231 42.458 38.2774 33.0312 34.6304 26.538C36.7471 27.6053 38.4166 29.6127 39.2314 31.9898C41.374 27.2973 39.9489 21.6309 36.4827 17.7274C37.6593 18.6059 39.1917 19.0014 40.6724 18.8424H40.6744ZM24.5159 30.7058C24.182 30.4057 23.8561 30.1136 23.3373 29.6465C23.5341 31.8208 22.4052 32.9895 21.0418 34.0607C20.7893 34.2635 20.5747 34.3728 20.3382 34.3728C20.1017 34.3728 19.887 34.2635 19.6346 34.0607C18.2712 32.9895 17.1423 31.8208 17.339 29.6465C16.8183 30.1136 16.4943 30.4057 16.1604 30.7058C15.3595 29.6763 15.7629 27.9094 17.1641 26.2697C17.5835 25.7848 19.0244 25.4807 20.3382 25.4807C21.6519 25.4807 23.0929 25.7868 23.5122 26.2697C24.9134 27.9114 25.3169 29.6763 24.5159 30.7058ZM30.8044 16.7674C28.4572 16.7893 27.533 19.067 26.418 19.6294C27.05 19.7566 27.7913 19.7964 28.6539 19.7706C26.7817 21.4619 26.6406 20.8557 28.5903 22.7379C26.1834 23.7973 26.3882 23.2089 28.1014 25.6496C25.4501 25.8802 20.7754 25.107 20.7754 23.1453C20.7754 21.6984 21.1928 21.2493 22.9895 20.4582C23.7646 20.1184 23.8759 20.0806 23.8759 20.0806L23.544 18.6894C22.8047 18.8126 22.2025 18.3773 20.3362 18.3773C18.4699 18.3773 17.8697 18.8106 17.1284 18.6894L16.7964 20.0806C16.7964 20.0806 16.9077 20.1204 17.6829 20.4582C19.4796 21.2473 19.897 21.6984 19.897 23.1453C19.897 25.107 15.2203 25.8802 12.571 25.6496C14.2842 23.207 14.4869 23.7973 12.0821 22.7379C14.0318 20.8538 13.8907 21.4619 12.0185 19.7706C12.881 19.7964 13.6244 19.7566 14.2544 19.6294C13.1394 19.067 12.2152 16.7893 9.86798 16.7674C9.4824 16.8072 9.02528 16.8807 8.37735 17.0258C9.75668 15.6465 10.4126 14.1439 10.5576 12.4526C10.816 9.517 13.5767 6.92728 16.5241 6.81399C18.3149 6.74244 18.3149 7.6706 20.3342 10.3518C22.3535 7.6706 22.3535 6.74045 24.1443 6.81399C27.0937 6.92728 29.8524 9.517 30.1108 12.4526C30.2559 14.1439 30.9117 15.6465 32.2911 17.0258C31.6431 16.8807 31.186 16.8052 30.8004 16.7674H30.8044Z" fill="#192A56"></path>
  <path d="M26.5313 12.6175C25.941 12.5976 25.4739 12.6473 25.2493 12.6731C24.2337 12.8242 23.5321 13.3211 23.5321 14.77C23.5321 15.6326 23.6096 16.3441 23.7468 16.9542C23.7468 16.9542 24.0926 15.8035 24.2635 15.2708C24.3549 15.0005 24.6531 14.8554 24.9333 14.8892C25.8595 14.9886 28.0259 14.9469 29.3277 12.6254C28.4075 12.7208 27.4217 12.6334 26.5293 12.6175H26.5313Z" fill="#192A56"></path>
</svg>
